<svg width="28" height="28" viewBox="0 0 28 28" fill="none" xmlns="http://www.w3.org/2000/svg">
<g clip-path="url(#clip0_3_148)">
<path d="M20.125 11.375H25.375V6.125" stroke="#636363" stroke-width="2" stroke-linecap="round" stroke-linejoin="round"/>
<path d="M20.6062 21C19.2303 22.2983 17.5023 23.1624 15.6382 23.4842C13.774 23.8061 11.8563 23.5715 10.1247 22.8097C8.39313 22.0479 6.92442 20.7928 5.90209 19.201C4.87977 17.6093 4.34917 15.7516 4.37659 13.8601C4.40401 11.9685 4.98824 10.127 6.05628 8.56555C7.12431 7.00413 8.6288 5.79206 10.3817 5.0808C12.1347 4.36953 14.0584 4.1906 15.9124 4.56637C17.7665 4.94213 19.4687 5.85593 20.8064 7.19359L25.375 11.375" stroke="#636363" stroke-width="2" stroke-linecap="round" stroke-linejoin="round"/>
</g>
<defs>
<clipPath id="clip0_3_148">
<rect width="28" height="28" fill="white"/>
</clipPath>
</defs>
</svg>
